<?xml version="1.0" encoding="utf-8"?>
<!-- Generator: Adobe Illustrator 12.0.0, SVG Export Plug-In . SVG Version: 6.00 Build 51448)  -->
<!DOCTYPE svg PUBLIC "-//W3C//DTD SVG 1.1//EN" "http://www.w3.org/Graphics/SVG/1.1/DTD/svg11.dtd" [
	<!ENTITY ns_svg "http://www.w3.org/2000/svg">
	<!ENTITY ns_xlink "http://www.w3.org/1999/xlink">
]>
<svg  version="1.1" id="Layer_1" xmlns="&ns_svg;" xmlns:xlink="&ns_xlink;" width="502.795" height="431.007"
	 viewBox="0 0 502.795 431.007" overflow="visible" enable-background="new 0 0 502.795 431.007" xml:space="preserve">
<g>
	<g>
		<path fill="none" d="M165.368,24.888C266.634,4.634,357.772,78.052,404.608,160.331c16.455,29.113,15.189,86.076,7.596,118.988
			c-7.596,35.441-40.508,82.277-78.482,93.67"/>
		<path fill="#FBF49F" d="M167.958,39.583c13.342-2.607,23.998-3.469,35.688-3.149c5.963,0.164,11.91,0.71,17.822,1.478
			c2.938,0.381,5.859,0.872,8.773,1.397c1.455,0.262,2.902,0.56,4.35,0.857c1.74,0.383,1.924,0.416,0.553,0.098
			c0.957,0.225,1.912,0.457,2.867,0.697c11.951,2.952,23.561,7.205,34.766,12.282c10.4,4.713,19.5,9.973,30.332,17.235
			c21.561,14.455,37.328,29.127,54.244,48.669c8.158,9.426,15.697,19.382,22.711,29.685c0.832,1.222,1.646,2.456,2.463,3.689
			c2.668,4.038-1.496-2.373,1.092,1.702c1.568,2.471,3.086,4.974,4.586,7.487c2.83,4.739,5.385,9.507,7.383,14.659
			c0.295,0.775,0.578,1.557,0.852,2.34c1.42,3.992-0.895-3.08,0.34,1.059c0.631,2.117,1.162,4.264,1.674,6.412
			c1.074,4.514,1.844,9.096,2.498,13.688c0.684,4.801,1.117,9.637,1.445,14.473c0.313,4.594,0.355,7.318,0.32,13.781
			c-0.051,9.576-0.691,19.148-1.791,28.658c-0.502,4.334-1.154,8.648-1.912,12.943c-0.35,1.984-0.75,3.961-1.166,5.932
			c-0.117,0.557-1.008,4.367-0.178,0.836c-0.281,1.203-0.611,2.395-0.939,3.586c-5.27,19.113-13.311,32.584-25.986,48.264
			c-0.623,0.764-1.254,1.52-1.891,2.27c-0.025,0.031-3.221,3.664-1.336,1.596c-1.645,1.805-3.363,3.543-5.1,5.26
			c-3.418,3.377-7.068,6.512-10.854,9.469c-1.85,1.445-3.771,2.795-5.713,4.115c1.309-0.828,1.223-0.779-0.258,0.146
			c-1.168,0.723-2.365,1.395-3.564,2.064c-1.967,1.1-3.998,2.074-6.047,3.01c-1.211,0.555-2.449,1.045-3.688,1.533
			c-0.459,0.182-4.619,1.564-1.164,0.49c-7.766,2.414-13.65,8.51-12.104,17.287c1.277,7.242,9.498,14.523,17.287,12.104
			c48.252-14.99,81.961-63.602,91.732-111.537c4.854-23.803,5.422-48.705,3.279-72.844c-1.102-12.41-3.664-24.375-7.518-36.209
			c-3.707-11.379-10.451-21.441-16.91-31.41C354.815,55.292,262.349-9.263,162.777,10.192c-7.982,1.56-13.537,9.164-12.104,17.287
			C152.066,35.378,159.974,41.143,167.958,39.583L167.958,39.583z"/>
	</g>
</g>
<g>
	<g>
		<path fill="none" d="M55.242,116.667c-38.728,61.178-3.705,172.503,43.048,219.541c28.614,28.276,66.286,44.893,101.404,58.43"/>
		<path fill="#7E6E2C" d="M43.019,108.108C18.2,147.907,20.345,198.722,32.083,242.485c12.292,45.828,35.223,89.528,72.877,119.325
			c26.503,20.974,58.251,34.73,89.555,46.824c7.592,2.933,16.379-1.28,19.177-8.817c2.859-7.706-1.244-16.25-8.817-19.177
			c-25.889-10.001-49.459-20.119-71.948-35.345c-10.759-7.283-19.602-14.498-27.838-23.6c-3.142-3.472-6.069-7.135-8.884-10.874
			c-1.472-1.955-2.882-3.956-4.274-5.968c-0.71-1.026-1.399-2.066-2.089-3.105c1.976,2.978-0.979-1.571-1.305-2.098
			c-5.836-9.413-10.867-19.316-15.334-29.444c-2.23-5.057-4.259-10.201-6.167-15.388c-0.963-2.619-1.865-5.262-2.746-7.91
			c-1.46-4.394,0.886,2.905-0.482-1.523c-0.552-1.786-1.07-3.582-1.584-5.379c-3.195-11.185-5.554-22.604-7.116-34.128
			c-0.735-5.425-1.216-10.881-1.523-16.346c-0.252-4.487,0.081,3.08-0.044-1.394c-0.038-1.34-0.046-2.68-0.054-4.02
			c-0.019-3.094,0.079-6.186,0.227-9.275c0.228-4.754,0.722-9.491,1.394-14.202c0.358-2.516,0.82-5.016,1.319-7.508
			c0.827-4.122-0.739,2.94,0.246-1.124c0.293-1.209,0.623-2.41,0.953-3.609c1.193-4.332,2.706-8.57,4.423-12.72
			c0.922-2.229,1.964-4.406,3.048-6.561c-1.609,3.199,0.242-0.35,0.516-0.83c0.591-1.038,1.223-2.052,1.855-3.065
			c4.3-6.896,3.261-15.933-3.665-20.782C57.407,99.967,47.324,101.205,43.019,108.108L43.019,108.108z"/>
	</g>
</g>
<g>
	<g>
		<path fill="none" d="M234.989,13.495c69.621,10.127,144.305,49.367,178.48,112.658c18.988,35.443,40.508,106.329,15.189,144.304"
			/>
		<path d="M233.722,26.868c47.155,6.99,93.696,26.869,130.578,59.068c16.246,14.184,30.959,33.177,40.583,52.96
			c10.29,21.152,16.146,39.771,19.925,62.935c2.103,12.886,2.651,21.337,1.423,34.107c-0.638,6.631-1.274,9.395-2.821,14.357
			c-0.739,2.374-1.663,4.686-2.656,6.964c-0.104,0.235-1.915,3.835-0.58,1.341c-0.764,1.428-1.632,2.797-2.515,4.153
			c-3.99,6.131-2.848,14.4,3.298,18.704c5.842,4.091,14.711,2.837,18.704-3.298c13.459-20.679,15.241-45.624,13.061-69.582
			c-2.187-24.012-9.33-47.822-18.544-70.019c-19.08-45.967-55.48-81.633-98.772-105.276c-30.835-16.841-64.39-28.009-99.147-33.161
			c-7.244-1.074-13.982,5.112-14.641,12.106C220.902,19.809,226.487,25.796,233.722,26.868L233.722,26.868z"/>
	</g>
</g>
<g>
	<g>
		<path fill="none" d="M156.508,13.495c-41.773-2.531-83.545,35.443-105.064,67.089C4.609,146.407,2.077,237.546,37.521,309.698"/>
		<path d="M157.775,0.122c-28.214-1.39-54.026,11.215-75.825,28.167C61.421,44.252,44.279,65.031,31.083,87.357
			C3.431,134.143-5.143,190.057,2.867,243.473c3.731,24.879,11.513,49.387,22.52,71.99c7.57,15.544,31.866,4.077,24.267-11.529
			c-21.94-45.054-28.947-98.139-17.797-146.572c11.051-48.001,40.525-94.811,82.948-119.106c3.152-1.805,6.412-3.413,9.714-4.92
			c1.861-0.85,3.762-1.605,5.669-2.344c0.948-0.359,1.902-0.703,2.861-1.032c-1.038,0.298-0.741,0.208,0.889-0.271
			c3.813-1.133,7.723-1.902,11.657-2.464c4.182-0.598,4.979-0.585,9.646-0.355c7.305,0.36,13.932-4.579,14.641-12.106
			C170.544,7.727,165.087,0.482,157.775,0.122L157.775,0.122z"/>
	</g>
</g>
<g>
	<g>
		<path fill="none" d="M408.407,318.56c-40.506,56.961-135.443,93.67-202.531,98.734c-60.76,3.797-97.469-35.443-122.786-84.811"/>
		<path d="M397.406,310.856c-12.268,17.077-28.685,31.065-47.684,43.655c-7.465,4.946-19.872,11.801-29.759,16.672
			c-10.962,5.4-22.25,10.126-33.711,14.354c-11.51,4.245-19.783,6.768-32.199,9.95c-10.905,2.797-21.96,5.011-33.099,6.646
			c-22.194,3.261-41.696,2.753-62.058-6.06c-1.579-0.683-3.126-1.435-4.669-2.195c-1.404-0.713-1.528-0.777-0.372-0.193
			c-1.128-0.609-2.233-1.259-3.338-1.908c-3.683-2.162-7.195-4.604-10.606-7.17c-1.37-1.03-2.7-2.112-4.024-3.199
			c-0.662-0.549-1.317-1.104-1.967-1.667c-0.082-0.069-3.214-2.921-1.306-1.15c-3.196-2.964-6.204-6.125-9.116-9.365
			c-12.413-13.814-19.847-26.163-28.275-42.507c-3.353-6.501-11.12-9.584-17.898-6.368c-6.446,3.058-9.724,11.392-6.369,17.897
			c10.641,20.634,23.432,40.643,40.229,56.829c17.506,16.87,38.104,28.227,61.864,33.439c22.806,5.003,46.925,1.65,69.534-2.887
			c24.005-4.817,47.601-12.315,70.198-21.705c40.423-16.795,80.718-41.597,106.626-77.662
			C429.527,312.177,407.514,296.787,397.406,310.856L397.406,310.856z"/>
	</g>
</g>
<g>
	<g>
		<path fill="none" d="M63.755,169.253c-0.439,26.062-1.391,60.599,5.55,86.538c8.865-15.345,8.039-39.214,16.442-56.288
			c30.226,16.005,17.142,91.775,37.577,119.666c22.238-20.775,10.135-83.322,22.681-112.623
			c37.847,30.643,17.679,111.09,52.068,142.658c11.229-16.904,15.59-42.16,22.434-61.598c4.117,25.77,7.43,55.461,16.732,79.842
			c0.803-3.922,2.24-8.938,3.043-12.859"/>
		<path fill="#FDEE28" d="M34.037,166.437c-0.534,31.269-2.066,64.016,5.878,94.537c2.713,10.426,8.562,18.925,19.031,22.811
			c11.579,4.298,28.399,0.688,34.806-10.876c4.437-8.008,7.764-15.517,9.882-24.377c2.297-9.611,3.994-19.329,6.145-28.968
			c-0.575,2.515-1.15,5.028-1.725,7.543c1.384-5.933,3.073-11.728,5.687-17.244c-15.037,4.695-30.074,9.392-45.111,14.087
			c3.045,1.681,8.707,7.384,0.325-0.707c1.647,1.59,3.022,3.445,4.284,5.347c-1.4-2.166-2.8-4.333-4.201-6.499
			c2.555,4.049,4.396,8.42,5.896,12.955c-0.809-2.543-1.618-5.085-2.427-7.628c11.662,36.789,4.585,78.147,28.056,111.061
			c9.018,12.646,31.083,14.087,42.071,3.453c33.475-32.395,20.737-81.878,30.007-122.856c-0.575,2.515-1.15,5.029-1.726,7.543
			c0.798-3.317,1.774-6.559,3.084-9.712c-15.037,4.695-30.074,9.392-45.111,14.087c0.279,0.231,0.559,0.463,0.838,0.694
			c2.191,1.912,1.11,0.927-3.245-2.957c1.038,0.986,1.998,2.052,2.945,3.125c1.662,1.882,3.123,3.933,4.505,6.024
			c-1.4-2.166-2.8-4.332-4.201-6.498c3.821,6.018,6.578,12.534,8.756,19.308c-0.809-2.543-1.618-5.085-2.427-7.628
			c6.236,20.097,7.685,41.272,11.281,61.912c3.901,22.397,10.842,47.445,27.973,63.54c5.924,5.566,11.536,9.617,19.945,10.409
			c10.304,0.971,21.54-3.758,27.263-12.6c13.616-21.04,17.913-45.088,25.98-68.356c-19.128-1.726-38.256-3.451-57.384-5.177
			c4.705,29.654,8.558,59.171,19.16,87.47c4.604,12.286,19.918,18.736,32.146,16.58c5.302-0.952,10.011-3.161,14.126-6.629
			c6.461-5.49,8.685-11.974,10.409-19.946c0.109-0.506,0.22-1.012,0.329-1.518c-0.575,2.515-1.15,5.029-1.726,7.544
			c1.474-6.3,3.071-12.559,4.439-18.886c1.598-7.386-2.284-16.627-6.956-22.124c-5.007-5.892-12.243-9.685-19.945-10.409
			c-7.954-0.749-16.038,1.782-22.125,6.956c-6.461,5.49-8.685,11.974-10.409,19.946c-0.109,0.506-0.22,1.012-0.329,1.518
			c0.575-2.515,1.15-5.029,1.726-7.544c-1.474,6.3-3.071,12.559-4.439,18.886c18.894-3.332,37.787-6.663,56.681-9.995
			c-0.985-2.631-1.906-5.278-2.773-7.95c0.809,2.543,1.618,5.086,2.427,7.628c-7.327-23.37-10.135-47.788-13.958-71.892
			c-2.074-13.076-13.527-23.307-26.574-24.535c-13.111-1.235-26.441,6.76-30.81,19.358c-3.445,9.937-6.069,20.13-9.098,30.196
			c-1.543,5.128-3.245,10.202-5.176,15.197c-0.933,2.413-1.98,4.778-3.075,7.122c-2.466,5.28,3.568-6.445,0.766-1.421
			c-0.714,1.28-1.508,2.514-2.304,3.744c15.736-0.729,31.472-1.46,47.208-2.19c-3.064-2.88-5.693-6.076-8.007-9.586
			c1.4,2.166,2.801,4.332,4.201,6.498c-3.528-5.577-6.1-11.599-8.15-17.858c0.81,2.542,1.619,5.085,2.428,7.628
			c-6.554-20.747-7.828-42.714-11.702-64.023c-4.957-27.263-14.691-52.394-36.481-70.454c-5.835-4.836-15.069-6.219-22.3-4.944
			c-10.675,1.882-18.732,9.207-22.811,19.031c-12.656,30.485-6.105,65.139-12.987,96.809c0.575-2.514,1.15-5.028,1.725-7.543
			c-0.976,4.241-2.208,8.382-3.936,12.382c-0.949,2.197-3.297,6.079,1.764-3.193c-0.461,0.846-0.987,1.654-1.515,2.46
			c-0.515,0.786-1.096,1.525-1.678,2.262c-2.772,3.508,5.824-6.046,2.63-2.955c14.023,1.15,28.047,2.302,42.071,3.453
			c-0.335-0.458-0.659-0.924-0.971-1.398c1.4,2.166,2.8,4.333,4.201,6.499c-2.522-3.934-4.321-8.199-5.785-12.626
			c0.809,2.542,1.619,5.085,2.428,7.628c-6.268-19.797-6.783-41.024-9.904-61.432c-3.517-22.991-11.166-51.319-33.191-63.475
			c-7.233-3.992-13.848-6.434-22.3-4.943c-11.073,1.952-18.191,9.281-22.811,19.031c-6.827,14.409-8.321,30.808-11.832,46.213
			c0.575-2.515,1.15-5.029,1.725-7.543c-0.695,2.906-1.47,5.777-2.389,8.62c-0.866,2.68-5.539,11.515-0.4,2.24
			c17.946,3.978,35.892,7.956,53.837,11.935c-3.601-13.837-4.9-28.117-5.509-42.366c0.109,2.666,0.219,5.332,0.328,7.998
			c-0.559-14.722-0.292-29.446-0.041-44.171c0.278-16.25-9.788-30.922-26.902-32.534C51.333,138.1,34.315,150.162,34.037,166.437
			L34.037,166.437z"/>
	</g>
</g>
<g>
	<g>
		<path fill="none" d="M100.811,113.495c32.912,1.266,77.215-1.266,106.331,10.127c-11.393,35.443-69.622,20.253-89.875,40.506
			c39.241,24.051,107.595,10.127,140.507,43.038c30.379,30.38-49.367,26.583-63.291,35.443
			c24.051,34.177,87.342,7.595,107.594,46.835c15.191,30.381-29.113,32.912-46.834,44.305c13.924,6.33,43.037,3.797,58.227,1.266
			c-3.797,0-6.328,0-10.125,0"/>
		<path fill="#FFF200" d="M97.995,143.213c30.879,1.131,62.445-0.936,92.796,5.997c-2.515-0.575-5.029-1.15-7.544-1.725
			c4.602,1.108,9.112,2.442,13.535,4.13c-5.878-12.784-11.756-25.568-17.634-38.352c-0.901,2.66-4.146,8.763,1.096-1.063
			c-0.763,1.43-1.711,2.751-2.698,4.032c-1.835,2.2-0.749,1.03,3.259-3.51c-0.646,0.688-1.354,1.313-2.059,1.937
			c-1.183,1.046-2.483,1.951-3.797,2.821c2.166-1.4,4.332-2.8,6.498-4.201c-3.943,2.472-8.182,4.246-12.605,5.663
			c2.543-0.809,5.086-1.618,7.628-2.427c-25.881,7.906-57.604,4.662-78.511,24.851c-5.727,5.53-9.646,11.838-10.41,19.946
			c-0.944,10.025,3.657,21.891,12.601,27.262c34.361,20.637,74.483,19.463,112.474,27.869c-2.514-0.574-5.028-1.149-7.543-1.725
			c4.673,1.07,9.29,2.31,13.844,3.812c2.006,0.661,3.979,1.415,5.941,2.198c2.47,0.986,11.01,5.34,1.106,0.132
			c3.955,2.08,7.647,4.618,11.093,7.457c2.228,1.93,1.252,1.03-2.927-2.698c0.767,0.718,1.49,1.479,2.209,2.244
			c1.136,1.207,2.154,2.514,3.089,3.88c-1.4-2.166-2.801-4.332-4.201-6.498c0.815,1.278,1.499,2.577,1.984,4.017
			c-0.81-2.543-1.618-5.086-2.428-7.629c0.24,0.85,0.391,1.675,0.438,2.556c-0.109-2.666-0.219-5.332-0.328-7.998
			c-0.006,0.639-0.065,1.242-0.19,1.868c0.574-2.514,1.149-5.028,1.725-7.543c-1.357,5.078,5.169-7.681,1.857-3.453
			c6.763-8.633,4.916-4.881,1.914-2.86c2.166-1.4,4.332-2.8,6.498-4.2c-2.668,1.686-5.587,2.84-8.575,3.821
			c2.543-0.809,5.085-1.618,7.628-2.427c-10.488,3.308-21.535,4.631-32.382,6.217c-10.195,1.492-22.795,2.624-31.702,8.033
			c-6.926,4.206-12.268,8.748-15.183,16.604c-3.93,10.589-1.166,20.85,5.231,29.668c12.364,17.047,31.762,24.241,51.479,28.513
			c14.449,3.131,29.358,3.358,43.798,6.578c-2.515-0.574-5.029-1.149-7.543-1.725c2.809,0.659,5.574,1.428,8.307,2.356
			c3.013,1.024,12.114,5.977,1.81,0.285c2.413,1.333,4.636,2.974,6.726,4.764c-8.007-6.858-3.718-3.397-1.95-1.384
			c1.211,1.38,2.253,2.896,3.25,4.434c-1.4-2.166-2.801-4.332-4.201-6.499c1.612,2.648,2.919,5.378,3.872,8.331
			c-0.81-2.543-1.618-5.086-2.428-7.628c0.521,1.856,0.861,3.685,0.96,5.611c-0.109-2.666-0.219-5.332-0.328-7.998
			c0.002,1.398-0.124,2.729-0.411,4.099c0.575-2.515,1.149-5.029,1.725-7.544c-0.271,1.018-0.607,1.975-1.034,2.938
			c4.085-9.219,3.317-5.881,1.474-3.472c-2.518,3.292,6.564-6.538,2.313-2.734c-1.073,0.96-2.264,1.784-3.457,2.584
			c2.166-1.399,4.332-2.8,6.499-4.2c-12.432,7.926-27.692,9.771-40.146,17.56c-9.125,5.707-15.845,12.859-16.907,24.147
			c-1.306,13.854,6.983,25.483,19.358,30.809c10.935,4.705,23.66,5.752,35.455,5.689c12.793-0.067,25.679-0.964,38.313-3.026
			c13.075-2.135,23.303-13.482,24.535-26.575c1.415-15.026-10.618-32.533-26.901-32.533c-3.375,0-6.75,0-10.125,0
			c-8.321,0-15.579,1.393-22.125,6.956c-5.892,5.007-9.685,12.243-10.409,19.946c-1.415,15.026,10.618,32.533,26.901,32.533
			c3.375,0,6.75,0,10.125,0c-0.788-19.702-1.577-39.405-2.366-59.108c-8.109,1.324-16.288,2.149-24.495,2.54
			c2.666-0.109,5.332-0.219,7.998-0.327c-9.155,0.364-18.439,0.28-27.42-1.726c2.514,0.575,5.028,1.149,7.543,1.725
			c-2.167-0.541-4.258-1.197-6.311-2.08c0.816,18.318,1.634,36.638,2.451,54.956c11.395-7.126,25.18-9.373,37.007-15.692
			c11.923-6.37,20.252-14.528,26.328-26.563c6.274-12.428,3.63-27.354-1.331-39.623c-8.161-20.188-28.249-34.2-48.817-39.286
			c-18.009-4.452-36.539-4.924-54.566-9.033c2.515,0.575,5.028,1.149,7.543,1.725c-2.467-0.592-4.9-1.268-7.31-2.061
			c-2.959-0.975-12.377-5.777-1.93-0.21c-2.451-1.307-4.721-2.917-6.861-4.678c8.697,7.156,1.226,0.899-0.871-1.99
			c-3.316,15.424-6.634,30.848-9.951,46.271c1.357-0.825,2.834-1.372,4.343-1.854c-2.543,0.81-5.086,1.618-7.628,2.428
			c12.934-3.918,26.861-4.464,40.101-7.007c8.648-1.661,17.578-3.919,25.533-7.705c13.479-6.416,21.597-17.239,24.503-31.743
			c2.453-12.237-4.354-25.647-12.274-34.444c-9.714-10.788-21.904-18.313-35.13-24.023c-22.436-9.686-47.961-11.692-71.922-15.06
			c-8.083-1.136-16.141-2.442-24.11-4.217c2.514,0.575,5.029,1.15,7.543,1.725c-5.063-1.168-10.059-2.539-14.971-4.236
			c-2.369-0.819-4.69-1.767-6.986-2.769c-1.13-0.493-2.237-1.035-3.343-1.579c9.351,4.594,3.547,1.864,1.433,0.594
			c0.73,15.736,1.46,31.473,2.191,47.208c1.431-1.382,2.963-2.578,4.629-3.665c-2.166,1.4-4.332,2.801-6.499,4.201
			c3.122-1.916,6.452-3.317,9.924-4.465c-2.543,0.809-5.085,1.618-7.628,2.428c14.894-4.677,30.73-5.109,45.826-8.951
			c23.181-5.897,44.235-18.634,52.308-42.457c5.259-15.519-2.136-32.439-17.634-38.352c-36.1-13.774-76.044-10.466-113.874-11.852
			C87.385,83.182,72.683,93.8,71.093,110.679C69.635,126.159,81.734,142.618,97.995,143.213L97.995,143.213z"/>
	</g>
</g>
<g>
	<g>
		<path fill="none" d="M188.152,274.254c-7.706,5.347-5.191,25.616-8.86,34.177"/>
		<path fill="#E4C3A8" d="M184.291,269.701c-11.002,8.607-6.107,25.186-10.598,36.657c-2.814,7.189,8.396,11.299,11.197,4.145
			c2.062-5.268,2.376-11.121,2.929-16.693c0.438-4.427,0.316-11.969,4.194-15.003C198.078,274.062,190.351,264.961,184.291,269.701
			L184.291,269.701z"/>
	</g>
</g>
<g>
	<g>
		<path fill="none" d="M172.964,54.002c67.09-3.798,118.988,48.101,135.443,111.393c10.127,36.709,17.721,75.949-17.721,101.266
			c26.582,10.126,54.43,29.114,73.416-5.063c13.924-22.785,12.658-68.354,5.064-93.671c-6.33-16.456-18.988-29.114-21.52-45.569"/>
		<path fill="#FFF200" d="M178.146,83.392c0.481-0.024,0.964-0.049,1.445-0.073c-2.666,0.109-5.332,0.219-7.998,0.328
			c10.729-0.418,21.364,0.508,31.843,2.859c-2.515-0.575-5.028-1.149-7.543-1.725c7.858,1.859,15.454,4.467,22.807,7.804
			c1.617,0.734,3.204,1.529,4.786,2.333c-9.521-4.835-1.905-0.923,0.217,0.333c3.822,2.262,7.486,4.784,11.054,7.427
			c3.227,2.391,6.306,4.974,9.307,7.641c-7.701-6.845-2.409-2.152-0.75-0.529c1.609,1.574,3.158,3.207,4.691,4.854
			c5.889,6.324,11.126,13.236,15.866,20.454c-1.4-2.167-2.801-4.333-4.2-6.499c8.067,12.517,14.399,25.982,19.021,40.136
			c-0.81-2.543-1.618-5.085-2.428-7.628c5.49,17.291,10.166,35.506,11.098,53.682c-0.109-2.666-0.219-5.332-0.328-7.998
			c0.272,7.084-0.134,14.097-1.6,21.043c0.574-2.514,1.149-5.028,1.725-7.543c-0.688,2.964-1.548,5.848-2.61,8.699
			c-0.61,1.637-1.351,3.221-2.108,4.794c4.391-9.109,1.564-3.065,0.226-0.971c-1.549,2.421-9.152,10.696-1.905,3.089
			c-2.84,2.98-6.063,5.572-9.382,7.996c-18.659,13.625-10.72,43.173,8.949,50.755c21.302,8.212,40.908,18.23,64.529,15.608
			c27.72-3.078,47.269-30.051,54.044-55.124c6.545-24.219,6.946-49.549,3.499-74.323c-1.665-11.968-4.787-23.862-10.39-34.605
			c-5.348-10.255-12.397-19.552-16.008-30.656c0.81,2.542,1.618,5.085,2.428,7.628c-0.575-1.989-1.037-3.968-1.392-6.007
			c-2.789-16.028-18.579-27.028-34.573-24.208c-16.049,2.83-26.996,18.545-24.208,34.572c1.79,10.287,5.814,20.03,10.968,29.047
			c4.552,7.964,9.563,15.593,12.979,24.15c-0.81-2.543-1.618-5.085-2.428-7.628c3.444,11.746,4.948,23.991,5.468,36.194
			c-0.109-2.666-0.219-5.332-0.328-7.998c0.441,12.771-0.275,25.602-3.093,38.094c0.575-2.515,1.15-5.029,1.725-7.543
			c-0.704,2.937-1.521,5.826-2.492,8.687c-0.943,2.776-5.666,12.167-0.274,1.987c-1.613,3.045-3.478,5.968-5.52,8.74
			c-0.587,0.771-1.198,1.522-1.835,2.253c3.645-3.881,4.414-4.791,2.308-2.73c-1.202,1.148-2.546,2.129-3.911,3.07
			c2.167-1.4,4.333-2.801,6.499-4.201c-1.958,1.233-3.958,2.226-6.132,3.019c2.542-0.81,5.085-1.619,7.628-2.428
			c-2.467,0.783-4.927,1.239-7.506,1.432c2.666-0.108,5.332-0.218,7.998-0.327c-3.812,0.152-7.52-0.272-11.249-1.05
			c2.515,0.575,5.029,1.15,7.543,1.726c-12.389-2.843-23.761-8.816-35.559-13.364c2.982,16.918,5.966,33.837,8.949,50.755
			c24.003-17.527,37.269-46.111,36.526-75.646c-0.695-27.691-7.625-55.483-17.691-81.228
			c-18.459-47.21-58.607-89.173-108.279-102.772c-17.729-4.854-34.492-6.091-52.77-5.164c-7.417,0.376-15.204,6.474-19.264,12.273
			c-4.519,6.455-6.313,14.536-4.943,22.3c1.369,7.764,5.818,14.745,12.272,19.265C162.944,83.418,169.834,83.814,178.146,83.392
			L178.146,83.392z"/>
	</g>
</g>
<g>
	<g>
		<path fill="none" d="M104.609,278.053c27.849-36.709,62.025,67.089,24.051,68.354"/>
		<path fill="#BD972E" d="M109.498,281.477c1.229-1.581,2.428-2.797,4.057-4.029c0.792-0.599,1.982-1.028,2.804-1.194
			c0.785-0.159,1.951-0.044,2.426,0.092c2.043,0.586,2.016,0.69,3.951,2.13c6.167,4.589,10.442,14.086,13.189,22.077
			c3.052,8.879,4.479,18.658,3.141,27.894c-0.506,3.496-1.567,6.411-3.817,9.198c-1.374,1.701-3.743,2.691-7.626,2.886
			c-7.675,0.385-5.51,12.136,2.073,11.756c27.727-1.389,22.839-39.353,17.014-56.857c-3.431-10.313-9.232-21.564-18.542-27.727
			c-10.433-6.905-21.367-2.18-28.449,6.928C94.985,280.719,104.787,287.536,109.498,281.477L109.498,281.477z"/>
	</g>
</g>
<g>
	<g>
		<path fill="none" d="M83.09,195.773c13.924,12.659,50.633,5.063,27.848-8.86"/>
		<path fill="#BD972E" d="M79.667,200.663c9.042,7.787,23.787,9.445,34.869,5.702c4.854-1.64,8.83-4.961,9.615-10.232
			c0.931-6.243-5.206-11.202-9.79-14.109c-6.485-4.112-13.361,5.648-6.847,9.779c1.421,0.901,2.88,1.806,4.063,3.009
			c1.154,1.174,0.374,1.202,0.814-0.316c0.349-1.206-0.002-0.164-0.837,0.257c-1.25,0.631-2.588,0.88-3.955,1.132
			c-7.168,1.326-15.498-0.188-21.086-5C80.677,185.857,73.886,195.685,79.667,200.663L79.667,200.663z"/>
	</g>
</g>
<g>
	<g>
		<path fill="none" d="M316.003,181.85c-25.316-21.519-3.799-70.886,26.582-50.633c26.582,17.722-5.064,54.431-22.785,64.557"/>
		<path fill="#BD972E" d="M319.427,176.96c-8.729-7.691-10.454-20.317-6.734-30.907c3.308-9.415,11.607-16.094,21.674-12.467
			c30.217,10.89-1.822,47.831-17.129,56.794c-6.582,3.854-1.532,14.684,5.125,10.785c14.6-8.551,27.418-22.765,33.71-38.518
			c3.089-7.733,3.604-16.104,0.614-23.917c-3.191-8.34-11.927-14.424-20.156-17.01c-15.813-4.967-29.568,5.882-35.035,20.188
			c-6.057,15.851-1.533,33.712,11.084,44.83C318.355,191.828,325.141,181.995,319.427,176.96L319.427,176.96z"/>
	</g>
</g>
<g>
	<g>
		<path fill="none" d="M388.153,310.964c-22.785-26.582-12.658-67.089,26.582-55.696"/>
		<path fill="#BD972E" d="M392.706,307.103c-7.869-9.396-13.17-22.627-9.38-34.865c4.053-13.08,17.762-14.581,29.337-11.371
			c7.379,2.046,11.56-9.142,4.145-11.197c-17.26-4.785-35.616-1.711-43.707,15.879c-7.509,16.325-0.318,36.36,10.5,49.277
			C388.541,320.724,397.657,313.015,392.706,307.103L392.706,307.103z"/>
	</g>
</g>
<g>
	<g>
		<path fill="none" d="M271.698,380.585c-22.785-20.254,31.646-45.57,37.975,0"/>
		<path fill="#BD972E" d="M276.251,376.724c-1.622-1.492-3.576-3.987-3.785-4.646c-0.772-2.442-0.524-2.537,0.319-4.5
			c-0.362,0.843,0.806-1.171,1.078-1.525c0.263-0.341,0.969-0.988,1.97-1.784c1.172-0.934,3.938-2.204,5.296-2.576
			c12.925-3.541,20.767,7.338,22.666,19.929c1.149,7.619,12.902,5.528,11.756-2.072c-1.527-10.127-5.654-20.132-14.42-26.029
			c-6.567-4.42-15.157-5.479-22.722-3.406c-15.769,4.32-24.879,21.81-11.264,34.333
			C272.729,389.583,281.919,381.937,276.251,376.724L276.251,376.724z"/>
	</g>
</g>
<g>
	<g>
		<path fill="none" d="M179.292,394.509c-2.531-15.189,2.533-32.912,15.191-15.189c16.455,21.518-13.924,26.582-13.924,10.125"/>
		<path fill="#BD972E" d="M182.231,393.99c-0.648-4.126-0.778-8.236-0.217-12.381c0.216-1.598,0.865-6.102,2.86-6.665
			c2.91-0.822,6.551,5.261,7.853,7.002c1.885,2.521,3.375,5.431,3.675,8.594c0.747,7.861-12.708,7.251-12.871-0.814
			c-0.077-3.809-6.021-4.402-5.943-0.563c0.142,7.034,4.767,12.624,12.019,12.99c6.674,0.336,12.766-4.447,12.731-11.371
			c-0.023-4.724-2.39-8.952-5.059-12.698c-3.107-4.361-7.145-9.374-13.011-9.088c-4.2,0.205-6.507,5.05-7.463,8.486
			c-1.57,5.65-1.354,11.804-0.453,17.545C176.95,398.832,182.827,397.789,182.231,393.99L182.231,393.99z"/>
	</g>
</g>
<g>
	<g>
		<path fill="none" d="M34.989,246.407c-5.063-13.925,8.861-13.925,12.658-2.532c3.797,13.924-8.861,15.19-15.19,5.063"/>
		<path fill="#BD972E" d="M37.685,245.126c-0.424-1.235-2.011-6.483,0.65-6.529c3.19-0.056,5.319,3.315,6.37,5.876
			c0.888,2.162,1.563,7.342-1.598,8.061c-3.516,0.799-6.725-3.003-8.374-5.525c-2.101-3.214-6.634,0.677-4.553,3.861
			c3.043,4.656,8.948,9.139,14.837,7.308c6.977-2.17,7.159-10.468,5.08-16.266c-1.879-5.243-7.34-10.158-13.218-9.109
			c-7.146,1.274-6.325,9.821-4.587,14.887C33.539,251.32,38.921,248.73,37.685,245.126L37.685,245.126z"/>
	</g>
</g>
<g>
	<g>
		<path fill="none" d="M31.191,165.395c11.392-7.596,21.519,5.063,10.126,13.924c-10.126,7.595-25.316-5.063-8.861-12.658"/>
		<path fill="#BD972E" d="M32.473,168.091c2.951-1.86,7.933-3.528,10.224,0.287c2.398,3.992-2.068,8.382-5.467,9.813
			c-2.71,1.141-6.384,0.412-8.343-1.782c-2.732-3.059,2.705-6.014,4.852-7.052c3.459-1.672,0.91-7.071-2.563-5.393
			c-5.51,2.663-11.648,8.356-7.799,14.924c3.311,5.649,10.691,6.748,16.415,4.695c6.764-2.427,11.364-10.467,8.543-17.28
			c-3.079-7.437-12.625-7.259-18.425-3.604C26.7,164.722,29.215,170.144,32.473,168.091L32.473,168.091z"/>
	</g>
</g>
<g>
	<g>
		<path fill="none" d="M79.292,88.179c2.532-17.721,24.051-5.063,18.987,5.063c-5.063,13.925-22.785,2.532-20.253-8.86"/>
		<path fill="#BD972E" d="M82.264,88.46c0.67-3.975,2.806-7.102,7.152-5.841c3.081,0.895,6.64,3.917,6.656,7.379
			c0.022,4.649-4.162,7.62-8.352,6.143c-4.63-1.632-7.578-6.733-6.721-11.478c0.686-3.796-5.266-4.318-5.943-0.563
			c-1.41,7.806,4.063,15.337,11.295,17.887c7.807,2.753,15.058-3.648,15.666-11.425c0.502-6.437-5.384-12.048-11.127-13.715
			c-8.047-2.336-13.32,3.651-14.568,11.05C75.679,91.702,81.629,92.228,82.264,88.46L82.264,88.46z"/>
	</g>
</g>
<g>
	<g>
		<path fill="none" d="M152.71,47.673c6.329-7.596,27.849-10.127,25.316,5.063c-2.531,13.925-35.443,12.658-30.379-6.328"/>
		<path fill="#BD972E" d="M155.155,49.385c3.523-3.926,9.963-5.238,14.973-4.571c6.233,0.829,6.387,8.136,2.199,11.558
			c-7.176,5.864-24.629,2.724-21.881-8.928c0.874-3.704-4.717-5.809-5.599-2.072c-2.051,8.696,1.951,15.787,10.462,18.583
			c7.254,2.383,17.037,1.241,22.466-4.504c5.892-6.233,3.999-16.529-3.942-19.793c-7.685-3.158-18.244,0.372-23.568,6.305
			C147.697,48.824,152.616,52.214,155.155,49.385L155.155,49.385z"/>
	</g>
</g>
<g>
	<g>
		<path fill="none" d="M250.179,85.647c-10.125-18.987,20.254-26.582,25.316-10.127c5.064,18.988-27.848,25.316-30.379,7.596"/>
		<path fill="#BD972E" d="M252.875,84.366c-3.108-6.219-1.482-12.306,5.565-14.362c6.406-1.869,13.334,1.061,14.512,7.986
			c2.229,13.11-22.504,18.148-24.896,4.608c-0.67-3.791-6.549-2.754-5.879,1.036c3.83,21.671,40.126,13.738,36.489-7.645
			c-1.726-10.146-13.074-14.252-22.043-11.636c-10.429,3.042-13.816,13.218-9.141,22.575
			C249.199,90.363,254.6,87.818,252.875,84.366L252.875,84.366z"/>
	</g>
</g>
<g>
	<g>
		<path fill="none" d="M165.369,213.495c10.126-13.924,20.253,11.393,12.658,20.254c-11.392,12.658-27.848-12.658-16.456-22.785"/>
		<path fill="#BD972E" d="M167.813,215.207c3.912-5.048,6.856-1.499,8.698,3.146c1.854,4.676,2.201,11.989-2.581,15.035
			c-9.127,5.813-16.928-13.899-10.429-20.148c2.759-2.652-1.078-7.229-3.861-4.553c-12.405,11.929,3.159,40.684,18.928,28.678
			c7.13-5.429,5.801-16.899,2.278-23.944c-4.143-8.284-12.387-8.78-17.923-1.638C160.562,214.832,165.461,218.241,167.813,215.207
			L167.813,215.207z"/>
	</g>
</g>
<g>
	<g>
		<path fill="none" d="M264.103,269.191c-8.859-10.126,6.33-24.051,15.191-16.455c11.393,10.126-7.596,30.379-20.254,13.924"/>
		<path fill="#BD972E" d="M266.379,267.261c-7.56-9.363,10.094-19.872,13.211-8.784c1.138,4.05-1.78,8.253-5.146,10.208
			c-4.999,2.903-9.866,0.067-13.128-3.955c-2.425-2.989-6.979,0.869-4.553,3.861c5.226,6.444,13.304,9.517,20.893,5.108
			c6.395-3.714,9.693-11.389,7.12-18.406c-2.947-8.04-12.955-9.54-19.417-5.063c-7.118,4.932-9.087,14.015-3.533,20.893
			C264.244,274.117,268.798,270.258,266.379,267.261L266.379,267.261z"/>
	</g>
</g>
<g>
	<g>
		<path fill="none" d="M208.407,331.218c-10.127-8.861,2.531-22.785,10.127-11.393c7.594,10.127-3.799,16.455-12.658,15.189"/>
		<path fill="#BD972E" d="M210.684,329.287c-2.427-2.255-4.126-5.388-2.244-8.558c1.472-2.479,4.238-2.823,6.31-0.854
			c2.616,2.488,4.736,6.637,1.695,9.54c-2.635,2.515-6.836,3.039-10.287,2.627c-3.831-0.458-4.374,5.488-0.563,5.943
			c6.031,0.722,12.613-1.068,16.484-5.961c4.496-5.683,0.398-13.521-4.396-17.458c-4.462-3.664-10.527-1.904-13.821,2.283
			c-4,5.085-2.126,12.214,2.269,16.298C208.912,335.733,213.505,331.909,210.684,329.287L210.684,329.287z"/>
	</g>
</g>
<g>
	<g>
		<path fill="none" d="M170.433,126.153c0-27.848,51.898-7.595,32.91,21.52C189.419,171.724,148.913,141.344,170.433,126.153"/>
		<path fill="#BD9F2F" d="M173.404,126.435c0.207-9.894,8.357-12.165,16.695-9.304c9.098,3.122,16.364,12.061,13.913,21.979
			c-3.119,12.623-14.191,17.431-25.553,12.004c-9.025-4.311-15.877-15.419-6.097-22.686c3.091-2.296-0.781-6.841-3.861-4.553
			c-12.833,9.535-5.979,24.697,5.634,31.637c5.89,3.52,13.175,5.154,19.878,3.284c7.526-2.101,12.316-8.798,15.018-15.782
			c5.171-13.372-3.896-26.215-16.135-31.21c-11.81-4.82-25.144,0.089-25.436,14.066
			C167.381,129.703,173.324,130.281,173.404,126.435L173.404,126.435z"/>
	</g>
</g>
<g>
	<g>
		<path fill="none" d="M314.735,181.85c-20.611-11.778-15.83-57.333,12.369-53.548c34.25,4.598,11.521,52.443-2.242,66.206"/>
		<path d="M317.303,178.183c-18.792-11.287-12.363-52.426,13.492-44.511c11.96,3.661,10.64,17.461,7.872,27.093
			c-3.094,10.765-8.79,22.258-16.701,30.33c-4.003,4.084,1.742,10.961,5.793,6.828c15.618-15.935,38.258-64.219,4.172-73.21
			c-34.815-9.183-46.384,44.816-19.763,60.805C317.093,188.475,322.261,181.16,317.303,178.183L317.303,178.183z"/>
	</g>
</g>
<g>
	<g>
		<path fill="none" d="M384.356,312.229c-16.455-17.721-20.254-44.304,5.063-58.228c11.393-6.329,37.975-8.861,34.178,10.126"/>
		<path d="M387.771,309.333c-12.618-13.9-17.8-34.574-1.552-47.899c6.893-5.653,35.929-15.202,32.92,2.271
			c-0.981,5.704,7.943,6.49,8.916,0.846c4.319-25.092-29.684-21.323-43.159-13.054c-10.628,6.521-17.719,17.168-18.13,29.772
			c-0.412,12.641,5.876,24.712,14.177,33.856C384.811,319.388,391.664,313.622,387.771,309.333L387.771,309.333z"/>
	</g>
</g>
<g>
	<g>
		<path fill="none" d="M269.167,379.319c-17.723-20.254,39.24-29.115,35.443,0"/>
		<path d="M272.581,376.423c-2.278-2.707-3.239-5.056-1.174-7.11c2.83-2.813,7.218-3.688,11.037-4.098
			c9.178-0.985,18.859,3.251,17.708,13.682c-0.635,5.753,8.284,6.571,8.916,0.846c1.861-16.876-13.364-24.597-28.179-23.345
			c-6.391,0.54-12.995,3.081-17.13,8.124c-4.538,5.536-2.133,12.794,1.993,17.694C269.469,386.63,276.307,380.849,272.581,376.423
			L272.581,376.423z"/>
	</g>
</g>
<g>
	<g>
		<path fill="none" d="M189.419,399.571c-12.658-3.797-11.393-16.455,1.266-21.518"/>
		<path d="M190.973,395.372c-2.647-0.881-6.049-2.359-5.957-5.662c0.108-3.899,4.525-6.293,7.591-7.612
			c5.302-2.281,1.456-10.369-3.844-8.088c-6.373,2.742-11.8,7.671-12.662,14.854c-0.891,7.419,5.408,12.79,11.765,14.906
			C193.343,405.594,196.452,397.196,190.973,395.372L190.973,395.372z"/>
	</g>
</g>
<g>
	<g>
		<path fill="none" d="M116.001,271.724c25.316,11.392,32.911,44.305,22.784,68.355"/>
		<path d="M114.448,275.923c23.024,10.788,29.124,40.527,20.139,62.603c-2.183,5.364,6.228,8.439,8.398,3.107
			c10.964-26.937,1.973-61.269-25.43-74.108C112.313,265.068,109.263,273.493,114.448,275.923L114.448,275.923z"/>
	</g>
</g>
<g>
	<g>
		<path fill="none" d="M88.153,200.837c10.127,0,20.254,3.798,30.381,1.267"/>
		<path d="M88.012,202.323c10.348,0.216,20.453,3.464,30.781,1.25c1.877-0.402,1.365-3.343-0.519-2.939
			c-10.049,2.154-19.911-1.072-29.981-1.283C86.378,199.311,86.089,202.282,88.012,202.323L88.012,202.323z"/>
	</g>
</g>
<g>
	<g>
		<path fill="none" d="M205.876,135.012c0,13.705-16.01,24.087-29.611,18.591C141.721,139.642,205.872,79.255,205.876,135.012z"/>
		<path fill="#7E6E2C" d="M204.39,134.871c-0.589,16.217-22.835,25.431-34.046,12.973c-5.58-6.2-1.879-15.44,2.154-21.335
			c4.281-6.258,11.234-12.284,19.021-13.181C202.746,112.036,204.321,127.043,204.39,134.871c0.018,1.908,2.989,2.203,2.973,0.281
			c-0.086-9.737-2.2-24.79-14.866-24.842c-9.806-0.041-18.715,8.487-23.588,16.23c-5.06,8.039-6.6,18.569,1.303,25.296
			c13.654,11.621,36.517,0.773,37.151-16.685C207.432,133.234,204.46,132.948,204.39,134.871z"/>
	</g>
</g>
<g>
	<path fill="#FFFFFF" d="M266.002,202.103"/>
	<g>
		<path fill="none" d="M266.002,202.103"/>
		<path fill="#FFFFFF" d="M261.778,246.68c12.481,0,23.367-2.089,33.187-10.434c8.837-7.511,14.526-18.365,15.614-29.92
			c1.124-11.931-2.675-24.057-10.434-33.187c-6.926-8.148-18.834-15.614-29.92-15.614c-12.481,0-23.367,2.089-33.187,10.434
			c-8.837,7.51-14.526,18.365-15.614,29.919c-1.124,11.931,2.675,24.057,10.434,33.187
			C238.784,239.214,250.692,246.68,261.778,246.68L261.778,246.68z"/>
	</g>
</g>
<g>
	<g>
		<path fill="none" d="M313.469,212.229c8.385,14.058,16.322,20.768,28.318,30.691c2.35,1.941,7.313,6.357,8.335,9.297
			c1.064,3.06-0.775,10.636-0.147,11.884c-3.431-6.819-19.207-14.001-20.206-19.979c-1.032-6.171,0.488-7.71,2.812-7.253"/>
		<path fill="#FFFFFF" d="M308.076,214.791c6.312,10.404,13.927,19.011,23.091,26.978c4.275,3.718,8.902,7.042,12.596,11.372
			c2.386,2.799-0.538,8.485,0.334,11.996c3.757-1.199,7.514-2.398,11.271-3.599c-2.742-4.834-7.115-8.188-11.479-11.496
			c-2.107-1.6-4.331-3.126-6.283-4.917c-0.686-0.629-1.529-1.403-1.99-2.218c0.129,0.746,0.062,0.233-0.203-1.537
			c0.312-2.325-0.82-1.845-3.396,1.441c7.67,0.853,8.761-11.038,1.127-11.887c-10.508-1.168-11.666,12.528-7.084,19.093
			c2.325,3.333,5.779,5.852,8.979,8.29c3.124,2.382,7.549,4.838,9.544,8.355c3.145,5.543,12.985,3.306,11.271-3.599
			c0.32,1.287,0.036-1.073,0.062-1.356c0.104-1.18,0.246-2.356,0.358-3.536c0.218-2.296,0.278-4.742-0.272-6.991
			c-1.344-5.49-6.668-9.687-10.789-13.15c-10.115-8.499-19.428-16.953-26.35-28.364
			C314.914,203.159,304.078,208.199,308.076,214.791L308.076,214.791z"/>
	</g>
</g>
<g>
	<g>
		<path fill="none" d="M246.381,194.507c8.86,1.266,13.924,6.329,13.924,15.19"/>
		<path d="M245.958,198.965c5.771,0.917,9.774,4.188,9.889,10.31c0.046,2.438,1.404,4.633,4.035,4.881
			c2.22,0.209,4.926-1.593,4.881-4.035c-0.094-4.998-1.178-9.611-4.457-13.515c-3.354-3.994-8.52-5.765-13.502-6.557
			C241.085,189.141,240.292,198.064,245.958,198.965L245.958,198.965z"/>
	</g>
</g>
<g>
	<g>
		<path fill="none" d="M251.444,267.925c1.441-12.492-3.352-30.884-12.659-39.24"/>
		<path d="M252.931,268.065c1.35-13.79-2.681-30.568-13.008-40.347c-1.38-1.307-3.675,0.606-2.275,1.932
			c9.778,9.259,13.591,25.061,12.311,38.134C249.771,269.703,252.743,269.979,252.931,268.065L252.931,268.065z"/>
	</g>
</g>
<g>
	<g>
		<path fill="none" d="M245.114,226.152c11.393,13.925,20.254,34.178,24.051,51.899"/>
		<path d="M243.977,227.118c11.822,14.729,19.649,32.822,23.719,51.192c0.415,1.874,3.356,1.363,2.939-0.518
			c-4.188-18.904-12.218-37.45-24.383-52.606C245.048,223.686,242.771,225.616,243.977,227.118L243.977,227.118z"/>
	</g>
</g>
<g>
	<g>
		<path fill="none" d="M497.014,194.507"/>
		<path fill="#FFFFFF" d="M496.45,200.45c7.643,0,8.815-11.887,1.127-11.887C489.935,188.563,488.762,200.45,496.45,200.45
			L496.45,200.45z"/>
	</g>
</g>
<g>
	<g>
		<path fill="none" d="M343.849,252.735c-7.753-5.815-16.608-19.612-18.987-29.114"/>
		<path fill="#F9C7DD" d="M348.128,246.624c-7.237-5.691-13.501-15.423-15.919-24.299c-2.508-9.204-17.226-6.695-14.695,2.592
			c3.519,12.912,11.493,25.624,22.056,33.93C347.148,264.807,355.666,252.552,348.128,246.624L348.128,246.624z"/>
	</g>
</g>
<g>
	<g>
		<path fill="none" d="M142.583,321.089c1.773,5.538,1.208,12.316,2.466,17.949c2.762,12.37,8.595,24.496,12.724,36.481"/>
		<path fill="#DD7926" d="M129.357,323.421c1.198,4.303,1.382,8.705,1.759,13.134c0.398,4.665,1.739,9.164,3.138,13.611
			c3.319,10.555,7.727,20.687,11.385,31.118c2.426,6.917,11.821,9.252,17.898,6.368c7.131-3.383,8.79-10.996,6.369-17.897
			c-3.056-8.714-6.712-17.202-9.715-25.936c-2.825-8.217-2.083-16.812-4.382-25.063c-1.964-7.05-7.819-12.258-15.558-10.894
			C133.571,309.041,127.389,316.356,129.357,323.421L129.357,323.421z"/>
	</g>
</g>
<line fill="none" stroke="#000000" stroke-width="10" x1="123.596" y1="310.963" x2="143.849" y2="384.381"/>
<g>
	<g>
		<path fill="none" d="M188.152,319.823c-5.063,17.722-10.126,34.178-6.329,51.899"/>
		<path fill="#FFCA3E" d="M175.556,315.162c-5.524,19.305-10.935,38.717-6.958,58.893c3.346,16.974,29.804,12.343,26.451-4.664
			c-3.03-15.373,1.491-30.195,5.7-44.906c2.015-7.037-0.693-14.57-7.936-17.258C186.347,304.826,177.568,308.127,175.556,315.162
			L175.556,315.162z"/>
	</g>
</g>
<g>
	<g>
		<path fill="none" d="M166.634,321.089c0,16.456,0,32.912,0,49.367"/>
		<path fill="#F89A1C" d="M153.261,319.821c0,16.456,0,32.912,0,49.367c0,7.314,4.312,13.907,12.106,14.641
			c6.762,0.637,14.64-4.778,14.64-12.105c0-16.456,0-32.912,0-49.367c0-7.314-4.312-13.907-12.105-14.641
			C161.139,307.079,153.261,312.494,153.261,319.821L153.261,319.821z"/>
	</g>
</g>
<line fill="none" stroke="#000000" stroke-width="7" x1="143.849" y1="384.381" x2="186.887" y2="384.381"/>
<line fill="none" stroke="#000000" stroke-width="7" x1="123.596" y1="310.963" x2="204.608" y2="310.963"/>
<g>
	<g>
		<path fill="none" d="M257.773,262.861c10.126,29.114,18.987,54.431,21.519,86.076"/>
		<path fill="#FFFFFF" d="M244.292,269.267c9.343,26.862,17.825,52.843,20.305,82.262c0.685,8.119,9.824,13.42,17.286,12.104
			c8.559-1.509,12.787-9.185,12.104-17.286c-2.626-31.151-12.525-60.544-22.732-89.891c-2.676-7.692-13.148-10.272-19.887-7.076
			C243.431,253.146,241.622,261.591,244.292,269.267L244.292,269.267z"/>
	</g>
</g>
<line fill="none" stroke="#000000" stroke-width="4" x1="204.608" y1="310.963" x2="197.014" y2="367.925"/>
<g>
	<g>
		<path fill="none" d="M275.494,265.394c1.739,5.8,6.788,11.166,8.166,16.705c1.086,4.368-1.878,10.392-0.926,13.356
			c2.776,8.651,6.71,8.941,15.545,12.976"/>
		<path fill="#FFFFFF" d="M262.013,271.799c0.87,2.51,2.06,4.776,3.393,7.067c0.805,1.382,1.636,2.746,2.431,4.134
			c0.128,0.224,2.045,4.726,1.129,1.689c0.106-1.924,0.101-1.974-0.018-0.151c-0.093,1.344-0.428,2.695-0.691,4.013
			c-0.63,3.155-0.831,6.287-0.217,9.495c1.268,6.624,5.285,12.877,10.538,17.018c4.251,3.351,9.626,5.168,14.522,7.364
			c7.433,3.333,16.49-1.58,19.177-8.817c2.973-8.012-1.412-15.854-8.817-19.177c-1.647-0.738-3.305-1.451-4.963-2.162
			c-0.691-0.296-1.378-0.603-2.059-0.92c3.445,1.573,0.773,0.375-0.022-0.167c1.624,1.622,1.889,1.853,0.795,0.692
			c-2.2-2.389,1.511,2.999-0.074-0.358c-0.965-2.644-0.872-1.492,0.279,3.452c-0.013-1.189,0.333-2.445,0.56-3.604
			c1.272-6.517,0.666-12.221-1.796-18.432c-1.938-4.892-5.464-8.93-7.203-13.947c-2.668-7.695-13.154-10.271-19.887-7.076
			C261.146,255.681,259.351,264.121,262.013,271.799L262.013,271.799z"/>
	</g>
</g>
<g>
	<g>
		<path fill="none" d="M293.216,356.532c9.477-6.942,10.049-32.365,0-39.24"/>
		<path fill="#FFFFFF" d="M298.043,362.223c13.951-11.106,13.725-40.393-0.548-51.042c-7.727-5.766-16.263,6.475-8.559,12.223
			c6.509,4.857,5.594,22.549-0.548,27.438C280.859,356.836,290.514,368.217,298.043,362.223L298.043,362.223z"/>
	</g>
</g>
<g>
	<g>
		<path fill="none" d="M304.624,203.338c0.016,2.497-0.016,5.046-0.016,7.625c0,34.639-47.396,56.299-75.297,34.309
			c-12.508-9.859-8.74-25.361-4.78-39.234c8.41-29.458,32.812-51.424,63.621-35.581c15.789,8.12,14.148,18.866,14.322,33.606
			c0.211,17.841,12.289,29.757,18.655,46.075c7.342,18.819,24.392,19.922,45.313,18.861c1.045-12.176-16.318-36.172-23.513-45.695
			c-11.063-14.647-30.682-23.637-40.853-36.392"/>
		<path d="M298.681,202.774c0.023,10.774-0.632,19.642-7.303,28.49c-5.307,7.038-13.555,12.212-21.909,14.811
			c-8.813,2.742-18.245,2.887-26.974-0.191c-4.43-1.563-8.72-4.132-11.911-7.594c-4.034-4.376-4.168-10.563-3.595-16.131
			c2.083-20.222,13.529-46.03,35.485-50.526c10.244-2.098,23.728,1.882,30.545,9.942c5.989,7.082,2.971,19.828,3.915,28.25
			c1.063,9.467,5.836,18.175,10.438,26.322c4.723,8.363,7.863,17.971,13.537,25.701c10.543,14.363,30.728,13.795,46.569,13.028
			c2.528-0.122,4.784-2.923,4.907-5.314c0.418-8.11-3.208-15.893-6.921-22.891c-4.216-7.944-9.359-15.438-14.63-22.711
			c-5.652-7.797-12.18-14.284-19.739-20.254c-8.367-6.607-17.626-12.351-24.466-20.656c-4.893-5.941-14.005,1.772-9.105,7.723
			c12.079,14.668,30.394,22.436,41.87,37.745c4.772,6.367,9.301,12.916,13.328,19.781c3.332,5.683,8.131,13.252,7.776,20.136
			c1.636-1.771,3.271-3.543,4.907-5.314c-9.685,0.468-21.2,1.167-29.873-3.985c-4.025-2.392-6.578-6.092-8.482-10.275
			c-2.775-6.099-5.587-11.995-8.894-17.837c-2.941-5.196-5.772-10.418-7.826-16.038c-2.124-5.813-1.896-11.938-1.943-18.012
			c-0.079-10.136-1.74-19.774-9.813-26.709c-17.953-15.422-44.486-14.059-61.301,1.935c-8.278,7.875-13.911,18.281-17.507,29.027
			c-3.617,10.813-7.012,23.621-3.631,34.881c7.233,24.092,38.961,27.275,59.097,20.539c10.218-3.418,19.258-10.142,25.923-18.535
			c8.042-10.127,9.438-21.723,9.411-34.21C310.551,196.261,298.663,195.087,298.681,202.774L298.681,202.774z"/>
	</g>
</g>
<g>
	<g>
		<path fill="none" d="M297.014,335.014c11.393,0,21.519,6.329,32.911,8.86"/>
		<path fill="#FFFFFF" d="M295.605,349.873c9.589,0.261,18.737,5.507,29.14,7.998c7.911,1.894,16.099-0.524,19.177-8.817
			c2.572-6.933-0.902-17.281-8.817-19.177c-12.351-2.956-23.741-9.37-36.683-9.723c-8.123-0.221-15.467,4.955-16.268,13.451
			C281.432,341.287,287.472,349.651,295.605,349.873L295.605,349.873z"/>
	</g>
</g>
<g>
	<g>
		<path fill="none" d="M316.001,329.95c32.911-17.722,35.443,46.835,0,26.582"/>
		<path d="M317.282,332.646c4.841-2.52,10.613-4.271,15.521-0.983c3.926,2.629,5.481,7.651,5.847,12.122
			c0.354,4.322-1.028,9.144-4.441,11.958c-4.712,3.886-11.956,0.866-16.496-1.655c-3.333-1.852-6.79,3.02-3.424,4.889
			c6.651,3.694,15.11,6.68,22.226,2.382c5.677-3.429,8.103-10.208,8.098-16.578c-0.005-6.729-2.604-13.393-7.915-17.661
			c-6.433-5.171-15.267-3.357-21.978,0.135C311.318,329.024,313.858,334.429,317.282,332.646L317.282,332.646z"/>
	</g>
</g>
<g>
	<g>
		<path fill="none" d="M216.001,294.507c11.393-2.531,22.784-1.266,34.177-1.266"/>
		<path fill="#FFFFFF" d="M217.297,301.854c10.666-2.178,21.378-1.245,32.177-1.184c9.561,0.055,11.021-14.805,1.408-14.859
			c-12.094-0.069-24.23-1.091-36.177,1.348C205.293,289.081,207.859,303.781,217.297,301.854L217.297,301.854z"/>
	</g>
</g>
<g>
	<g>
		<path fill="none" d="M285.621,245.14c-1.394,26.478,23.629,53.599,27.973,79.878c2.042,12.355,1.518,27.146-10.259,34.695
			c-8.848,5.672-43.241,9.289-49.359-1.915"/>
		<path d="M278.191,244.436c-0.588,16.802,6.61,32.098,13.952,46.785c7.076,14.156,15.185,28.717,14.921,45.011
			c-0.108,6.718-1.948,12.762-7.378,16.984c-3.121,2.427-7.493,2.747-11.584,3.443c-5.646,0.961-11.337,1.219-17.044,0.771
			c-2.391-0.188-4.726-0.559-7.01-1.281c-0.434-0.138-2.613-1.121-2.194-0.879c-0.441-0.27-0.865-0.565-1.271-0.887
			c1.111,0.828-0.706-1.172,0.132,0.212c-2.105-3.476-5.985-5.416-9.942-3.538c-3.394,1.609-5.648,6.46-3.538,9.942
			c7.4,12.214,24.234,12.122,36.829,11.164c15.138-1.15,29.062-6.004,35.287-21.049c6.883-16.636,0.317-36.642-6.706-51.997
			c-7.611-16.64-20.262-34.214-19.595-53.274C293.386,236.255,278.528,234.821,278.191,244.436L278.191,244.436z"/>
	</g>
</g>
<g>
	<g>
		<path fill="none" d="M248.912,256.532c12.658,31.646-54.431,21.52-39.24,44.304c6.329,10.127,45.569,2.532,56.962,5.063
			c-8.86-1.266-10.127,2.531-10.127,10.127"/>
		<path d="M244.868,258.454c7.739,20.255-31.702,18.694-40.053,30.331c-2.781,3.876-2.075,8.822,0.076,12.783
			c3.135,5.771,8.879,7.6,15.034,8.539c8.143,1.242,16.621,0.599,24.807,0.219c7-0.324,14.539-1.356,21.479,0.031
			c0.281-2.972,0.563-5.944,0.844-8.916c-10.219-1.192-14.904,4.354-15.007,14.162c-0.06,5.74,8.855,6.614,8.916,0.846
			c0.021-2.002-0.017-4.037,0.688-5.933c0.351-0.942,3.992-0.226,4.56-0.159c5.852,0.683,6.374-7.811,0.844-8.916
			c-6.225-1.244-12.961-0.456-19.244-0.156c-8.012,0.382-16.049,0.861-24.061,0.239c-5.016-0.39-9.849-0.887-11.793-6
			c-0.281-0.741,0.015-1.322,0.191-1.604c0.645-1.025,1.869-1.764,3.302-2.52c8.739-4.607,18.903-5.774,27.659-10.445
			c10.476-5.589,14.088-15.245,9.846-26.346C250.897,249.221,242.817,253.088,244.868,258.454L244.868,258.454z"/>
	</g>
</g>
<g>
	<g>
		<path fill="none" d="M267.899,342.608c-15.189-15.189-29.114-12.658-32.911,7.595c-3.798,25.316,6.329,20.253-20.253,29.114
			c6.329,1.266,13.924,2.531,20.253,1.266"/>
		<path fill="#FFFFFF" d="M279.28,332.954c-9.282-9.019-21.882-17.859-35.612-14.298c-15.19,3.94-22.009,18.255-23.895,32.737
			c-0.492,3.775-0.665,7.58-0.673,11.385c-0.003,1.179,0.011,2.356-0.019,3.535c-0.105,4.16,1.068-2.52,0.327-0.563
			c1.161-3.067,1.158-2.424,3.355-4.756c-0.781,0.83-2.957,1.992,1.923-1.101c-0.975,0.618-2.08,1.041-3.146,1.467
			c-4.31,1.722-8.811,3.013-13.211,4.475c-6.194,2.059-9.335,10.146-8.29,16.072c1.24,7.035,6.675,10.973,13.287,12.269
			c8.038,1.575,16.095,2.447,24.252,1.102c8.027-1.324,13.505-9.343,12.104-17.286c-1.425-8.078-9.262-13.428-17.286-12.104
			c-3.29,0.543-2.722,0.408-6.128,0.152c-3.403-0.255-6.782-0.927-10.126-1.582c1.665,9.447,3.331,18.894,4.997,28.341
			c7.096-2.357,14.175-4.16,20.337-8.531c5.515-3.911,7.35-10.998,7.344-17.363c-0.003-3.077,0.064-6.138,0.306-9.207
			c0.16-2.037,0.431-4.064,0.721-6.086c-0.343,2.389,0.634-1.947,0.663-2.035c0.176-0.534,2.086-4.315,0.363-1.249
			c0.388-0.65,0.813-1.274,1.277-1.873c-2.014,2.763-0.545,0.671,0.369-0.038c-3.175,2.463,1.429,0.309-2.758,1.394
			c3.168-0.821-3.514-0.242-0.122-0.046c3.431,0.198-3.073-1.04,0.421,0.105c0.553,0.181,3.826,1.947,1.069,0.372
			c2.626,1.501,4.28,2.945,5.388,4.021c5.821,5.655,14.387,7.377,21.035,1.727C283.302,349.104,285.126,338.634,279.28,332.954
			L279.28,332.954z"/>
	</g>
</g>
<g>
	<g>
		<path fill="none" d="M251.444,357.798c-1.267,16.456,15.189,24.051-1.267,35.443c-7.595,3.798-25.316,1.266-32.911,0
			c-36.709-6.329-37.975-24.051-1.266-24.051"/>
		<path d="M245.501,357.234c-0.277,5.798,0.934,11.037,3.036,16.408c1.141,2.914,3.854,6.939,2.772,10.159
			c-3.187,9.481-22.813,5.073-29.664,4.094c-7.23-1.033-23.116-3.32-26.57-9.563c-0.271-0.487-0.222,0.997-0.234,1.017
			c0.337-0.551,1.419-1.096,2.846-1.727c5.338-2.358,12.035-2.444,17.751-2.489c7.634-0.06,8.812-11.947,1.127-11.887
			c-9.683,0.076-31.823,0.309-33.353,14.032c-1.518,13.61,18.733,18.852,28.412,20.91c7.526,1.601,15.201,2.624,22.891,2.952
			c7.897,0.337,15.699-0.15,22.033-5.267c5.555-4.486,8.1-11.191,6.279-18.123c-1.742-6.637-5.779-12.278-5.439-19.391
			C257.755,350.684,245.868,349.547,245.501,357.234L245.501,357.234z"/>
	</g>
</g>
<g>
	<g>
		<path fill="none" d="M265.368,326.152c-35.443-22.784-63.291,30.38-34.178,39.241"/>
		<path d="M268.792,321.263c-17.152-10.669-37.855-7.798-49.61,9.22c-9.671,13.999-8.015,34.645,9.937,40.51
			c7.314,2.39,11.463-8.806,4.145-11.197c-10.534-3.441-9.682-14.217-4.303-22.466c7.638-11.713,21.52-13.42,32.984-6.287
			C268.46,335.095,275.341,325.337,268.792,321.263L268.792,321.263z"/>
	</g>
</g>
<path fill="none" stroke="#000000" stroke-width="4" d="M172.963,308.431c0.062-7.95,3.421-40.877,12.629-41.83
	c16.957-1.755,5.07,31.148,5.093,38.033"/>
</svg>
